<?xml version="1.0" encoding="utf-8"?>
<!-- Generator: Adobe Illustrator 18.1.1, SVG Export Plug-In . SVG Version: 6.00 Build 0)  -->
<svg version="1.1" id="Layer_1" xmlns="http://www.w3.org/2000/svg" xmlns:xlink="http://www.w3.org/1999/xlink" x="0px" y="0px"
	 viewBox="0 0 25 20.8" enable-background="new 0 0 25 20.8" xml:space="preserve">
<g>
	<path fill="#8098BA" d="M25,1c0-0.6-0.4-1-1-1H1C0.4,0,0,0.4,0,1v2.1c0,0.6,0.4,1,1,1H24c0.6,0,1-0.4,1-1V1z"/>
	<path fill="#8098BA" d="M25,9.4c0-0.6-0.4-1-1-1H1c-0.6,0-1,0.4-1,1v2.1c0,0.6,0.4,1,1,1H24c0.6,0,1-0.4,1-1V9.4z"/>
	<path fill="#8098BA" d="M25,17.7c0-0.6-0.4-1-1-1H1c-0.6,0-1,0.4-1,1v2.1c0,0.6,0.4,1,1,1H24c0.6,0,1-0.4,1-1V17.7z"/>
</g>
</svg>
