<?xml version="1.0" encoding="utf-8"?>
<!-- Generator: Adobe Illustrator 18.1.1, SVG Export Plug-In . SVG Version: 6.00 Build 0)  -->
<svg version="1.1" id="Layer_1" xmlns="http://www.w3.org/2000/svg" xmlns:xlink="http://www.w3.org/1999/xlink" x="0px" y="0px"
	 viewBox="0 0 19.8 19.8" enable-background="new 0 0 19.8 19.8" xml:space="preserve">
<g>
	<path fill="#FFFFFF" d="M18,0.3c-0.4-0.4-1-0.4-1.5,0L0.3,16.5c-0.4,0.4-0.4,1,0,1.5l1.5,1.5c0.4,0.4,1,0.4,1.5,0L19.5,3.3
		c0.4-0.4,0.4-1,0-1.5L18,0.3z"/>
	<path fill="#FFFFFF" d="M19.5,18c0.4-0.4,0.4-1,0-1.5L3.3,0.3c-0.4-0.4-1-0.4-1.5,0L0.3,1.8c-0.4,0.4-0.4,1,0,1.5l16.2,16.2
		c0.4,0.4,1,0.4,1.5,0L19.5,18z"/>
</g>
</svg>
