<?xml version="1.0" encoding="utf-8"?>
<!-- Generator: Adobe Illustrator 18.1.1, SVG Export Plug-In . SVG Version: 6.00 Build 0)  -->
<svg version="1.1" id="Layer_1" xmlns="http://www.w3.org/2000/svg" xmlns:xlink="http://www.w3.org/1999/xlink" x="0px" y="0px"
	 viewBox="0 0 15.3 27.2" enable-background="new 0 0 15.3 27.2" xml:space="preserve">
<g>
	<path fill="none" stroke="#FFFFFF" stroke-width="1.25" stroke-miterlimit="10" d="M14.1,0.6l-3.4,0C7,0.6,4.5,3.1,4.5,7v2.9H1.2
		c-0.3,0-0.5,0.2-0.5,0.5v4.3c0,0.3,0.2,0.5,0.5,0.5h3.4V26c0,0.3,0.2,0.5,0.5,0.5h4.4c0.3,0,0.5-0.2,0.5-0.5V15.3h4
		c0.3,0,0.5-0.2,0.5-0.5l0-4.3c0-0.1-0.1-0.3-0.2-0.4C14.2,10,14.1,9.9,14,9.9h-4V7.5c0-1.2,0.3-1.8,1.8-1.8l2.3,0
		c0.3,0,0.5-0.2,0.5-0.5v-4C14.6,0.9,14.4,0.6,14.1,0.6z"/>
</g>
</svg>
