<?xml version="1.0" encoding="utf-8"?>
<!-- Generator: Adobe Illustrator 18.1.1, SVG Export Plug-In . SVG Version: 6.00 Build 0)  -->
<svg version="1.1" id="Layer_1" xmlns="http://www.w3.org/2000/svg" xmlns:xlink="http://www.w3.org/1999/xlink" x="0px" y="0px"
	 viewBox="0 0 498.2 31" enable-background="new 0 0 498.2 31" xml:space="preserve">
<g>
	<path fill="none" stroke="#8098BA" stroke-miterlimit="10" d="M237.1,0.5c-0.4,0-0.8,0.1-1.1,0.4c-0.3,0.3-0.4,0.6-0.4,1.1v11.2
		c0,0.1-2.7-0.2-2.7-0.2c-0.1-0.1-0.3-0.2-0.5-0.2h-0.1c-0.2,0-0.4,0.1-0.5,0.3l-1.4,1.7c-0.1,0.2-0.2,0.3-0.2,0.5
		c0,0.2,0.1,0.4,0.3,0.5l5.1,4.3v9.5c0,0.2,0.1,0.4,0.2,0.5c0.1,0.1,0.3,0.2,0.5,0.2h4.5c0.2,0,0.4-0.1,0.5-0.2
		c0.1-0.1,0.2-0.3,0.2-0.5v-4.6l5.7,4.8c0.5,0.4,1.1,0.6,1.8,0.6c0.7,0,1.3-0.2,1.8-0.6l16.8-14c0.2-0.1,0.2-0.3,0.3-0.5
		c0-0.2,0-0.4-0.2-0.5l-1.4-1.7c-0.1-0.1-0.3-0.2-0.5-0.3c-0.2,0-0.4,0-0.6,0.2c0,0-2.7,0.2-2.7,0.2V2c0-0.4-0.1-0.8-0.4-1.1
		c-0.3-0.3-0.6-0.4-1.1-0.4"/>
	<line fill="none" stroke="#8098BA" stroke-miterlimit="10" x1="257" y1="0.5" x2="498.2" y2="0.5"/>
	<line fill="none" stroke="#8098BA" stroke-miterlimit="10" x1="0" y1="0.5" x2="241.6" y2="0.5"/>
</g>
</svg>
