<?xml version="1.0" encoding="utf-8"?>
<!-- Generator: Adobe Illustrator 18.1.1, SVG Export Plug-In . SVG Version: 6.00 Build 0)  -->
<svg version="1.1" id="Layer_1" xmlns="http://www.w3.org/2000/svg" xmlns:xlink="http://www.w3.org/1999/xlink" x="0px" y="0px"
	 viewBox="0 0 25.9 25.9" enable-background="new 0 0 25.9 25.9" xml:space="preserve">
<g>
	<path fill="#FFFFFF" d="M18.8,0H7.2C3.2,0,0,3.2,0,7.2v11.6c0,3.9,3.2,7.2,7.2,7.2h11.6c3.9,0,7.2-3.2,7.2-7.2V7.2
		C25.9,3.2,22.7,0,18.8,0z M24,19c0,2.8-2.3,5-5,5h-12c-2.8,0-5-2.3-5-5v-12c0-2.8,2.3-5,5-5h12c2.8,0,5,2.3,5,5L24,19L24,19z"/>
	<path fill="#FFFFFF" d="M13,6.3c-3.7,0-6.7,3-6.7,6.7c0,3.7,3,6.7,6.7,6.7s6.7-3,6.7-6.7C19.6,9.3,16.6,6.3,13,6.3z M13,18.2
		c-2.9,0-5.2-2.3-5.2-5.2c0-2.9,2.3-5.2,5.2-5.2s5.2,2.3,5.2,5.2C18.2,15.8,15.8,18.2,13,18.2z"/>
	<path fill="#FFFFFF" d="M19.9,4.3c-0.4,0-0.9,0.2-1.2,0.5c-0.3,0.3-0.5,0.7-0.5,1.2c0,0.4,0.2,0.9,0.5,1.2c0.3,0.3,0.7,0.5,1.2,0.5
		c0.4,0,0.9-0.2,1.2-0.5c0.3-0.3,0.5-0.7,0.5-1.2c0-0.4-0.2-0.9-0.5-1.2C20.8,4.5,20.4,4.3,19.9,4.3z"/>
</g>
</svg>
