<?xml version="1.0" encoding="utf-8"?>
<!-- Generator: Adobe Illustrator 18.1.1, SVG Export Plug-In . SVG Version: 6.00 Build 0)  -->
<svg version="1.1" id="Layer_1" xmlns="http://www.w3.org/2000/svg" xmlns:xlink="http://www.w3.org/1999/xlink" x="0px" y="0px"
	 viewBox="0 0 22.9 32.6" enable-background="new 0 0 22.9 32.6" xml:space="preserve">
<g>
	<path fill="#DE7D72" d="M11.5,7.2c-2.3,0-4.2,1.9-4.2,4.2s1.9,4.2,4.2,4.2s4.2-1.9,4.2-4.2S13.8,7.2,11.5,7.2z M11.5,14.3
		c-1.6,0-3-1.3-3-3s1.3-3,3-3s3,1.3,3,3S13.2,14.3,11.5,14.3z"/>
	<path fill="#DE7D72" d="M19.5,3.3c-2.2-2.2-5-3.3-8.1-3.3C8.4,0,5.5,1.2,3.3,3.3c-4,4-4.5,11.5-1.1,16.1l9.2,13.2l9.1-13.2
		C24,14.9,23.5,7.3,19.5,3.3z M19.6,18.7l-8.2,11.8L3.2,18.7c-3.1-4.1-2.7-10.9,1-14.5c1.9-1.9,4.5-3,7.2-3s5.3,1.1,7.2,3
		C22.3,7.8,22.7,14.6,19.6,18.7z"/>
</g>
</svg>
