<?xml version="1.0" encoding="utf-8"?>
<!-- Generator: Adobe Illustrator 18.1.1, SVG Export Plug-In . SVG Version: 6.00 Build 0)  -->
<svg version="1.1" id="Layer_1" xmlns="http://www.w3.org/2000/svg" xmlns:xlink="http://www.w3.org/1999/xlink" x="0px" y="0px"
	 viewBox="0 0 30.5 30.5" enable-background="new 0 0 30.5 30.5" xml:space="preserve">
<path fill="#DE7D72" d="M5.6,1.2L5.6,1.2c0.9,0,1.8,0.6,2.7,1.8c2.8,3.5,1.9,4.4,0.2,6.1L8.1,9.4C7.8,9.8,7.2,10.7,8,12.3
	c0.6,1.4,2.2,3.3,4.5,5.6c1.8,1.8,3.3,3.1,4.5,3.9c1.1,0.7,2,1,2.7,1c0.7,0,1.1-0.3,1.4-0.5l0.3-0.3c1-1,1.6-1.6,2.5-1.6
	c0.9,0,2.1,0.6,3.6,1.8c1.2,1,1.8,1.8,1.8,2.7c0,1.2-1.1,2.3-2.2,3.3l-0.1,0.1c-0.2,0.2-0.4,0.3-0.5,0.5c-0.4,0.4-1.1,0.6-2.1,0.6
	c-1.1,0-2.5-0.3-4.1-0.9c-3.5-1.3-7.4-4-10.9-7.5C6,17.5,3.4,13.6,2,10c-1.3-3.4-1-5.4-0.3-6.1C2,3.7,2.1,3.5,2.4,3.3
	C3.4,2.3,4.4,1.2,5.6,1.2 M5.6,0C3.9,0,2.6,1.3,1.5,2.5C1.3,2.7,1.1,2.9,0.9,3.1c-1.3,1.3-1.3,4,0,7.4c1.4,3.7,4.1,7.7,7.7,11.3
	c3.6,3.6,7.6,6.4,11.3,7.7c1.7,0.6,3.2,1,4.5,1c1.3,0,2.3-0.3,2.9-0.9c0.2-0.2,0.4-0.4,0.6-0.6c1.2-1.2,2.6-2.5,2.5-4.2
	c0-1.2-0.8-2.3-2.3-3.5c-1.9-1.5-3.2-2.1-4.3-2.1c-1.4,0-2.3,0.9-3.3,2l-0.3,0.3c-0.1,0.1-0.3,0.2-0.5,0.2c-0.6,0-1.5-0.5-2-0.8
	c-1.2-0.8-2.6-2-4.3-3.7c-5.2-5.2-4.7-6.6-4.4-6.9l0.3-0.3c1.8-1.8,3.4-3.3-0.1-7.7C8,0.8,6.9,0.1,5.7,0C5.6,0,5.6,0,5.6,0L5.6,0z"
	/>
</svg>
