<?xml version="1.0" encoding="utf-8"?>
<!-- Generator: Adobe Illustrator 18.1.1, SVG Export Plug-In . SVG Version: 6.00 Build 0)  -->
<svg version="1.1" id="Layer_1" xmlns="http://www.w3.org/2000/svg" xmlns:xlink="http://www.w3.org/1999/xlink" x="0px" y="0px"
	 viewBox="0 0 33 25.9" enable-background="new 0 0 33 25.9" xml:space="preserve">
<g>
	<path fill="#FFFFFF" d="M11.2,25.9C8,25.9,4.8,25,2,23.4l-2-1.2l2.3,0c0.1,0,0.2,0,0.4,0c0.9,0,3.7-0.1,6.6-1.8
		c-2.2-0.6-4-2.3-4.7-4.5l-0.4-1.1l1,0.3C3.6,13.8,2.6,12,2.5,9.9l-0.1-1l0.9,0.4c0.2,0.1,0.3,0.1,0.5,0.2C2.5,7.6,1.7,4.8,3.4,1.7
		l0.5-0.8l0.6,0.8c2.8,3.6,6.9,5.8,11.4,6.1c0-0.3,0-0.5,0-0.6c0-3.3,2.5-6.8,6.8-6.8c1.8,0,3.5,0.7,4.8,2c1.7-0.4,3.3-1.4,3.3-1.4
		L32.2,0l-0.6,1.6c-0.3,0.8-0.7,1.5-1.2,2.1c0.3-0.1,0.6-0.2,0.8-0.3L33,2.6l-0.7,1.6c-0.6,1.3-1.6,2.4-2.9,3.1
		c0.3,4.4-1.5,9.2-4.7,12.8c-2.4,2.7-6.7,5.8-13.4,5.9L11.2,25.9z M4.6,23.3c2.1,0.9,4.3,1.4,6.5,1.4l0.1,0c6.3,0,10.2-3,12.4-5.5
		c3.1-3.4,4.8-8.1,4.4-12.3l0-0.4l0.4-0.2c0.6-0.3,1.2-0.7,1.7-1.2c-0.5,0.1-1.1,0.2-1.8,0.3l-0.5,0.1l-0.4-0.9L28,4.2
		c0.6-0.4,1.1-0.8,1.6-1.4c-0.7,0.3-1.5,0.6-2.3,0.7l-0.3,0.1l-0.2-0.3c-1-1.2-2.5-1.8-4.1-1.8c-3.5,0-5.5,2.8-5.5,5.5
		c0,0.2,0.1,0.9,0.1,1.1L17.4,9l-0.9,0C11.7,8.9,7.2,6.8,4.1,3.2C2.9,6.5,4.9,9.1,5.9,9.9L7.4,11l-1.9,0c-0.6,0-1.1-0.1-1.7-0.2
		c0.5,2.2,2.2,3.9,4.5,4.4l2.5,0.5l-2.4,0.7c-0.4,0.1-0.9,0.2-1.4,0.2c-0.2,0-0.5,0-0.7,0c1,1.7,2.8,2.9,4.8,3l1.8,0.1l-1.4,1
		C8.9,22.4,6.4,23.1,4.6,23.3z"/>
</g>
</svg>
